<svg width="41" height="18" viewBox="0 0 41 18" fill="none" xmlns="http://www.w3.org/2000/svg">
<path d="M0.585227 14V0.909091H2.17045V12.5938H8.25568V14H0.585227ZM14.4943 14.2045C13.608 14.2045 12.8303 13.9936 12.1612 13.5717C11.4964 13.1499 10.9766 12.5597 10.6016 11.8011C10.2308 11.0426 10.0455 10.1562 10.0455 9.14205C10.0455 8.11932 10.2308 7.22656 10.6016 6.46378C10.9766 5.70099 11.4964 5.10866 12.1612 4.68679C12.8303 4.26491 13.608 4.05398 14.4943 4.05398C15.3807 4.05398 16.1563 4.26491 16.821 4.68679C17.4901 5.10866 18.0099 5.70099 18.3807 6.46378C18.7557 7.22656 18.9432 8.11932 18.9432 9.14205C18.9432 10.1562 18.7557 11.0426 18.3807 11.8011C18.0099 12.5597 17.4901 13.1499 16.821 13.5717C16.1563 13.9936 15.3807 14.2045 14.4943 14.2045ZM14.4943 12.8494C15.1676 12.8494 15.7216 12.6768 16.1562 12.3317C16.5909 11.9865 16.9126 11.5327 17.1214 10.9702C17.3303 10.4077 17.4347 9.7983 17.4347 9.14205C17.4347 8.4858 17.3303 7.87429 17.1214 7.30753C16.9126 6.74077 16.5909 6.28267 16.1562 5.93324C15.7216 5.58381 15.1676 5.40909 14.4943 5.40909C13.821 5.40909 13.267 5.58381 12.8324 5.93324C12.3977 6.28267 12.076 6.74077 11.8672 7.30753C11.6584 7.87429 11.554 8.4858 11.554 9.14205C11.554 9.7983 11.6584 10.4077 11.8672 10.9702C12.076 11.5327 12.3977 11.9865 12.8324 12.3317C13.267 12.6768 13.821 12.8494 14.4943 12.8494ZM25.209 17.8864C24.4803 17.8864 23.8539 17.7926 23.3297 17.6051C22.8056 17.4219 22.3688 17.179 22.0194 16.8764C21.6742 16.5781 21.3993 16.2585 21.1948 15.9176L22.3965 15.0739C22.5328 15.2528 22.7054 15.4574 22.9142 15.6875C23.123 15.9219 23.4086 16.1243 23.7708 16.2947C24.1373 16.4695 24.6167 16.5568 25.209 16.5568C26.0016 16.5568 26.6557 16.3651 27.1713 15.9815C27.687 15.598 27.9448 14.9972 27.9448 14.179V12.1847H27.8169C27.7061 12.3636 27.5485 12.5852 27.3439 12.8494C27.1436 13.1094 26.8539 13.3416 26.4746 13.5462C26.0996 13.7464 25.5925 13.8466 24.9533 13.8466C24.1607 13.8466 23.449 13.6591 22.8184 13.2841C22.1919 12.9091 21.6955 12.3636 21.329 11.6477C20.9668 10.9318 20.7857 10.0625 20.7857 9.03977C20.7857 8.03409 20.9625 7.15838 21.3162 6.41264C21.6699 5.66264 22.1621 5.0831 22.7928 4.67401C23.4235 4.26065 24.1522 4.05398 24.9789 4.05398C25.6181 4.05398 26.1252 4.16051 26.5002 4.37358C26.8794 4.58239 27.1692 4.82102 27.3695 5.08949C27.574 5.35369 27.7317 5.57102 27.8425 5.74148H27.9959V4.18182H29.4533V14.2812C29.4533 15.125 29.2615 15.8111 28.878 16.3395C28.4988 16.8722 27.9874 17.2621 27.3439 17.5092C26.7047 17.7607 25.9931 17.8864 25.209 17.8864ZM25.1578 12.4915C25.763 12.4915 26.2743 12.353 26.6919 12.076C27.1096 11.799 27.427 11.4006 27.6444 10.8807C27.8617 10.3608 27.9703 9.73864 27.9703 9.0142C27.9703 8.30682 27.8638 7.68253 27.6507 7.14134C27.4377 6.60014 27.1223 6.17614 26.7047 5.86932C26.2871 5.5625 25.7715 5.40909 25.1578 5.40909C24.5186 5.40909 23.986 5.57102 23.5598 5.89489C23.138 6.21875 22.8205 6.65341 22.6074 7.19886C22.3986 7.74432 22.2942 8.34943 22.2942 9.0142C22.2942 9.69602 22.4007 10.299 22.6138 10.8232C22.8311 11.343 23.1507 11.7521 23.5726 12.0504C23.9988 12.3445 24.5272 12.4915 25.1578 12.4915ZM36.2033 14.2045C35.3169 14.2045 34.5392 13.9936 33.8702 13.5717C33.2054 13.1499 32.6855 12.5597 32.3105 11.8011C31.9398 11.0426 31.7544 10.1562 31.7544 9.14205C31.7544 8.11932 31.9398 7.22656 32.3105 6.46378C32.6855 5.70099 33.2054 5.10866 33.8702 4.68679C34.5392 4.26491 35.3169 4.05398 36.2033 4.05398C37.0897 4.05398 37.8652 4.26491 38.53 4.68679C39.199 5.10866 39.7189 5.70099 40.0897 6.46378C40.4647 7.22656 40.6522 8.11932 40.6522 9.14205C40.6522 10.1562 40.4647 11.0426 40.0897 11.8011C39.7189 12.5597 39.199 13.1499 38.53 13.5717C37.8652 13.9936 37.0897 14.2045 36.2033 14.2045ZM36.2033 12.8494C36.8766 12.8494 37.4306 12.6768 37.8652 12.3317C38.2999 11.9865 38.6216 11.5327 38.8304 10.9702C39.0392 10.4077 39.1436 9.7983 39.1436 9.14205C39.1436 8.4858 39.0392 7.87429 38.8304 7.30753C38.6216 6.74077 38.2999 6.28267 37.8652 5.93324C37.4306 5.58381 36.8766 5.40909 36.2033 5.40909C35.53 5.40909 34.976 5.58381 34.5414 5.93324C34.1067 6.28267 33.785 6.74077 33.5762 7.30753C33.3674 7.87429 33.263 8.4858 33.263 9.14205C33.263 9.7983 33.3674 10.4077 33.5762 10.9702C33.785 11.5327 34.1067 11.9865 34.5414 12.3317C34.976 12.6768 35.53 12.8494 36.2033 12.8494Z" fill="white"/>
</svg>
